<?xml version="1.0" standalone="no"?>
<!DOCTYPE svg PUBLIC "-//W3C//DTD SVG 20010904//EN"
 "http://www.w3.org/TR/2001/REC-SVG-20010904/DTD/svg10.dtd">
<svg version="1.0" xmlns="http://www.w3.org/2000/svg"
 width="300.000000pt" height="300.000000pt" viewBox="0 0 300.000000 300.000000"
 preserveAspectRatio="xMidYMid meet">
<metadata>
Created by potrace 1.16, written by Peter Selinger 2001-2019
</metadata>
<g transform="translate(0.000000,300.000000) scale(0.100000,-0.100000)"
fill="#000000" stroke="none">
<path d="M326 2979 c-104 -82 -51 -239 81 -239 122 0 176 161 79 235 -43 33
-121 35 -160 4z"/>
<path d="M1270 2985 c-230 -38 -448 -123 -627 -247 -97 -66 -262 -224 -335
-320 -207 -271 -308 -573 -307 -923 0 -229 25 -322 76 -289 16 10 17 23 13 95
-9 146 -4 361 9 434 39 212 126 420 249 595 25 36 95 115 156 175 181 180 378
295 621 363 136 39 207 47 385 47 144 -1 194 -5 279 -24 195 -43 332 -100 500
-211 94 -62 125 -70 144 -39 17 28 1 47 -95 110 -197 129 -369 196 -605 234
-111 18 -355 18 -463 0z"/>
<path d="M99 2680 c-70 -20 -99 -60 -99 -135 0 -38 6 -52 34 -83 33 -35 38
-37 96 -37 58 0 63 2 96 37 28 32 34 45 34 84 0 25 -7 58 -16 74 -28 47 -95
75 -145 60z"/>
<path d="M2803 2480 c-80 -48 -83 -159 -7 -219 19 -15 41 -21 80 -21 46 0 57
4 88 34 33 31 36 38 36 90 0 64 -18 99 -61 122 -39 20 -98 18 -136 -6z"/>
<path d="M1235 2374 c-11 -3 -47 -9 -80 -15 -94 -17 -229 -87 -307 -158 -149
-137 -222 -302 -222 -506 0 -129 28 -237 91 -345 76 -131 223 -249 373 -301
49 -17 95 -24 186 -27 144 -5 210 9 333 69 l83 41 39 -38 c35 -34 37 -39 24
-54 -8 -9 -15 -24 -15 -33 0 -20 285 -308 333 -337 63 -39 148 -18 213 52 60
63 77 122 54 185 -13 33 -328 353 -349 353 -8 0 -22 -7 -31 -15 -15 -13 -20
-11 -54 24 l-38 39 40 83 c23 46 48 112 56 145 21 81 21 239 0 323 -18 72 -70
185 -111 241 -43 58 -138 144 -205 183 -117 70 -309 112 -413 91z m249 -65
c205 -60 359 -213 432 -429 28 -82 25 -302 -4 -384 -73 -200 -219 -343 -422
-412 -74 -26 -290 -26 -367 -2 -217 69 -382 238 -438 448 -19 72 -19 258 0
330 56 212 239 397 450 455 81 22 265 19 349 -6z m397 -1070 c21 -22 39 -43
39 -47 0 -9 -103 -112 -111 -112 -10 0 -89 77 -89 86 0 11 102 114 113 114 5
0 26 -18 48 -41z m231 -144 c54 -55 98 -103 98 -106 0 -4 -45 -53 -101 -109
l-101 -103 -116 116 -117 117 105 105 c87 87 106 102 119 92 8 -7 59 -57 113
-112z m170 -170 c21 -24 32 -76 23 -105 -10 -30 -72 -98 -106 -116 -51 -26
-110 -12 -153 35 l-20 22 104 104 c111 111 108 110 152 60z"/>
<path d="M1230 2200 c-184 -25 -350 -166 -411 -347 -26 -78 -31 -221 -10 -288
41 -130 141 -256 249 -313 343 -183 752 58 752 443 0 133 -45 249 -134 343
-119 127 -279 185 -446 162z m172 -31 c233 -49 408 -284 383 -514 -3 -36 -10
-65 -13 -65 -4 0 -39 32 -78 71 l-71 70 5 50 c6 67 -21 99 -84 99 -35 0 -47
-5 -69 -32 -26 -31 -29 -57 -11 -98 4 -10 -20 -41 -77 -98 -81 -81 -84 -83
-111 -71 -21 10 -34 10 -59 1 -30 -11 -34 -10 -71 27 -36 36 -38 41 -28 70 14
39 0 84 -33 105 -73 48 -167 -25 -136 -106 8 -23 4 -31 -45 -79 -29 -29 -56
-50 -60 -46 -4 3 -10 26 -15 49 -30 157 20 318 135 434 117 117 280 166 438
133z m134 -466 c12 -3 32 0 44 7 21 11 29 6 101 -66 44 -43 79 -87 79 -97 0
-35 -63 -138 -118 -192 -66 -67 -166 -119 -262 -136 -134 -24 -284 19 -394
113 -49 42 -126 149 -126 174 0 8 24 38 53 67 l52 54 67 -2 c62 -1 71 -4 101
-33 32 -31 34 -37 29 -83 -6 -67 21 -99 84 -99 35 0 47 5 68 31 28 33 32 59
15 91 -10 18 -2 30 72 104 57 58 89 82 99 78 8 -4 25 -9 36 -11z"/>
<path d="M2228 2362 c-66 -40 -39 -134 39 -140 34 -3 44 1 62 24 35 45 25 96
-26 122 -29 16 -43 15 -75 -6z"/>
<path d="M2034 2110 c-28 -11 -54 -48 -54 -78 0 -35 43 -72 84 -72 64 0 100
81 56 128 -12 12 -25 22 -30 22 -4 0 -14 2 -22 4 -7 3 -23 1 -34 -4z"/>
<path d="M2912 1763 c-6 -11 -6 -48 0 -93 13 -99 3 -357 -16 -445 -38 -171
-82 -289 -158 -422 -274 -477 -763 -745 -1313 -720 -265 13 -511 96 -730 248
-77 53 -108 60 -125 29 -17 -32 1 -52 105 -120 162 -104 316 -168 513 -213 83
-19 127 -22 312 -22 185 0 229 3 312 22 602 136 1037 574 1165 1173 23 107 27
520 5 558 -15 27 -57 30 -70 5z"/>
<path d="M2202 1684 c-32 -22 -43 -57 -31 -94 28 -79 149 -58 149 26 0 66 -66
104 -118 68z"/>
<path d="M667 1143 c-26 -7 -49 -59 -42 -94 19 -87 155 -72 155 17 0 60 -49
94 -113 77z"/>
<path d="M112 1113 c-37 -18 -72 -77 -72 -121 0 -40 38 -94 83 -116 50 -24 98
-15 145 29 33 30 36 37 36 86 0 64 -20 100 -69 123 -42 20 -81 20 -123 -1z"/>
<path d="M1275 915 c-16 -15 -25 -36 -25 -55 0 -19 9 -40 25 -55 15 -16 36
-25 55 -25 19 0 40 9 55 25 16 15 25 36 25 55 0 19 -9 40 -25 55 -15 16 -36
25 -55 25 -19 0 -40 -9 -55 -25z"/>
<path d="M903 800 c-49 -20 -59 -96 -17 -129 56 -44 124 -12 124 57 0 20 -7
45 -14 54 -16 22 -63 31 -93 18z"/>
<path d="M2796 509 c-103 -81 -51 -239 79 -239 81 0 125 48 125 136 0 50 -3
59 -34 90 -30 30 -40 34 -89 34 -40 0 -61 -5 -81 -21z"/>
<path d="M2482 240 c-72 -44 -81 -149 -18 -207 31 -29 42 -33 92 -33 50 0 59
3 89 33 46 46 55 98 26 152 -39 73 -120 97 -189 55z"/>
</g>
</svg>
