<?xml version="1.0" standalone="no"?>
<!DOCTYPE svg PUBLIC "-//W3C//DTD SVG 20010904//EN"
 "http://www.w3.org/TR/2001/REC-SVG-20010904/DTD/svg10.dtd">
<svg version="1.0" xmlns="http://www.w3.org/2000/svg"
 width="300.000000pt" height="300.000000pt" viewBox="0 0 300.000000 300.000000"
 preserveAspectRatio="xMidYMid meet">
<metadata>
Created by potrace 1.16, written by Peter Selinger 2001-2019
</metadata>
<g transform="translate(0.000000,300.000000) scale(0.100000,-0.100000)"
fill="#000000" stroke="none">
<path d="M1255 2989 c-22 -5 -62 -14 -90 -20 -72 -15 -188 -51 -200 -61 -5 -4
-15 -8 -23 -8 -39 0 -266 -129 -377 -214 -51 -40 -211 -200 -251 -251 -85
-111 -214 -338 -214 -377 0 -8 -4 -18 -8 -23 -10 -12 -46 -129 -61 -200 -6
-27 -15 -71 -21 -97 -13 -61 -13 -415 0 -476 6 -26 15 -69 21 -97 15 -71 51
-188 61 -199 4 -6 8 -16 8 -24 0 -39 129 -266 214 -377 40 -51 200 -211 251
-251 111 -85 338 -214 377 -214 8 0 18 -4 23 -8 12 -10 129 -46 200 -61 28 -6
71 -15 97 -21 61 -13 415 -13 476 0 26 6 70 15 97 21 71 15 188 51 200 61 5 4
15 8 23 8 39 0 266 129 377 214 51 40 211 200 251 251 85 111 214 338 214 377
0 8 4 18 8 24 10 11 46 128 61 199 6 28 15 71 21 97 13 61 13 415 0 476 -6 26
-15 70 -21 97 -15 71 -51 188 -61 200 -4 5 -8 15 -8 23 0 39 -129 266 -214
377 -40 51 -200 211 -251 251 -111 85 -338 214 -377 214 -8 0 -18 4 -24 8 -11
10 -128 46 -199 61 -27 6 -71 15 -97 21 -57 12 -427 12 -483 -1z m317 -643
c40 -19 159 -75 263 -126 105 -51 226 -109 270 -130 357 -169 544 -263 568
-283 21 -19 27 -33 26 -63 -1 -62 -10 -74 -94 -118 l-80 -41 -3 -218 c-2 -216
-2 -218 22 -250 31 -43 90 -247 83 -290 -3 -17 -22 -72 -43 -121 -41 -98 -71
-126 -136 -126 -63 0 -92 35 -133 162 l-36 111 35 120 c20 66 45 130 56 142
19 20 20 34 20 213 0 106 -1 192 -3 192 -2 0 -22 -9 -45 -20 l-42 -20 0 -154
c0 -132 -2 -157 -17 -174 -10 -12 -178 -98 -373 -191 l-355 -171 -75 0 -75 1
-359 173 c-263 127 -362 179 -372 197 -9 17 -13 68 -14 172 l0 147 -177 86
c-98 46 -185 92 -195 101 -21 19 -25 110 -5 136 6 9 89 53 182 98 94 45 235
113 315 151 217 104 515 248 600 290 41 20 85 37 97 37 13 1 56 -14 95 -33z"/>
<path d="M1350 2179 c-69 -34 -174 -85 -235 -114 -375 -179 -661 -318 -668
-324 -4 -4 43 -32 105 -61 62 -29 187 -89 278 -133 560 -270 640 -307 655
-307 7 0 127 55 266 123 140 68 306 148 369 177 63 30 180 87 260 126 l145 72
-259 126 c-142 69 -260 126 -261 126 -2 0 -119 56 -260 125 -142 69 -260 125
-264 125 -3 0 -62 -28 -131 -61z"/>
<path d="M802 1319 l3 -90 320 -155 c230 -111 330 -154 356 -154 26 0 124 42
355 154 l319 153 3 91 3 92 -43 -19 c-24 -10 -155 -74 -293 -141 -137 -67
-272 -131 -298 -142 l-48 -21 -112 53 c-62 30 -213 102 -336 162 -123 59 -225
108 -228 108 -2 0 -2 -41 -1 -91z"/>
</g>
</svg>
