<?xml version="1.0" standalone="no"?>
<!DOCTYPE svg PUBLIC "-//W3C//DTD SVG 20010904//EN"
 "http://www.w3.org/TR/2001/REC-SVG-20010904/DTD/svg10.dtd">
<svg version="1.0" xmlns="http://www.w3.org/2000/svg"
 width="300.000000pt" height="300.000000pt" viewBox="0 0 300.000000 300.000000"
 preserveAspectRatio="xMidYMid meet">
<metadata>
Created by potrace 1.16, written by Peter Selinger 2001-2019
</metadata>
<g transform="translate(0.000000,300.000000) scale(0.100000,-0.100000)"
fill="#000000" stroke="none">
<path d="M450 2317 l0 -324 -30 5 c-45 6 -125 -17 -169 -49 -80 -58 -119 -174
-91 -274 16 -56 81 -132 135 -156 23 -11 64 -19 98 -19 31 0 57 -4 57 -10 0
-6 -27 -10 -60 -10 -197 0 -359 -172 -377 -399 -7 -100 9 -140 73 -180 131
-83 461 -89 613 -11 63 32 84 63 89 131 4 52 -9 154 -25 195 -4 12 42 14 296
14 l300 0 11 -38 c39 -148 222 -221 360 -146 59 32 105 87 120 146 l11 38 154
0 c149 0 155 -1 155 -20 0 -56 75 -146 145 -176 58 -24 153 -22 209 6 57 27
110 88 127 146 l13 44 163 0 163 0 0 705 0 705 -1270 0 -1270 0 0 -323z m2490
-382 l0 -655 -140 0 -140 0 0 25 c0 66 -73 160 -149 193 -45 19 -134 20 -185
3 -75 -26 -142 -106 -160 -194 l-6 -27 -149 0 -149 0 -7 40 c-10 61 -61 129
-123 163 -112 63 -257 29 -329 -76 -17 -26 -34 -65 -38 -87 l-7 -40 -296 0
-296 0 55 58 c188 195 229 244 227 267 -3 19 37 54 237 215 132 105 243 195
247 198 4 4 -7 24 -25 45 l-32 39 -245 -196 c-192 -154 -249 -194 -266 -190
-25 6 -72 -16 -264 -126 -199 -114 -200 -114 -200 -93 0 11 15 27 35 37 19 11
47 35 62 54 87 115 65 278 -49 362 l-48 35 0 302 0 303 1220 0 1220 0 0 -655z"/>
<path d="M1500 985 c-107 -34 -205 -134 -251 -254 -31 -80 -33 -227 -4 -268
102 -141 589 -149 721 -12 23 24 29 40 32 92 11 177 -84 349 -232 422 -71 35
-192 44 -266 20z"/>
<path d="M2301 984 c-165 -60 -272 -219 -275 -409 -1 -95 11 -121 76 -159 152
-88 499 -84 635 7 49 33 63 65 63 150 0 175 -92 328 -239 395 -72 33 -193 40
-260 16z"/>
</g>
</svg>
