<svg xmlns="http://www.w3.org/2000/svg" width="400" height="400" xmlns:v="https://vecta.io/nano"><ellipse ry="35.692" rx="37.846" cy="131.384" cx="191.077" fill="#fff"/><g transform="matrix(3.623757 0 0 3.835133 39.12832 28.448164)" fill="#facc15"><ellipse ry="2.149" rx="2.281" cy="28.271" cx="35.932"/><path d="M25.141 44.046c-1.473-.576-9.345-2.622-7.154.191s7.154-.191 7.154-.191zm-9.069 4.46c-.452-1.037-3.398-6.049-3.713-3.52s3.713 3.52 3.713 3.52zm59.311-2.583c-.453-1.033-3.398-6.046-3.713-3.518s3.713 3.518 3.713 3.518zM3.467 61.578C5.828 63.754 9.79 60.35 9.79 60.35c-1.393-.294-8.684-.944-6.323 1.228zM80.16 40.383c.215-2.137-3.146 1.433-3.713 2.198 0 0 3.5-.059 3.713-2.198zM6.625 51.843c2.063 7.608 14.755 5.718 14.755 5.718-2.512-2.433-16.819-13.327-14.755-5.718zm65.707 4.411c-1.295-8.027-3.479-16.025-3.479-21.098 0-2.462-.357-4.836-1.02-7.069a7.44 7.44 0 0 0 1.51-1.149c2.623-2.561.273-3.01-2.969-2.721 1.303-.223 2.621-.89 3.809-2.288 2.652-3.126-.639-3.04-4.375-2.191 1.117-.66 2.027-1.768 2.436-3.566 1.422-6.269-2.428-3.821-5.922-.726 1.111-2.331 2.004-6.046-1.477-8.897-3.9-3.193-2.787 2.511-1.393 6.976-1.969-3.753-5.711-8.87-11.113-7.748-2.428.503-2.667 1.576-1.701 2.875-2.863-1.016-5.957-1.371-7.893.6-1.558 1.586-.541 2.502 1.559 3.001-7.197 2.058-12.967 7.755-15.401 15.094-.042.017-9.682 4.23-7.894 7.981l1.784-.14c1.145 1.021 5.731 1.142 7.537 1.149 10.7 8.74-38.985 53.591 33.245 46.812 6.879-.646 10.561-3.822 12.318-8.325.861.656 4.455 3.165 6.656 1.076 2.389-2.266-4.6-1.635-6.576-1.277 1.752-4.678 1.486-10.746.584-16.899 3.541.206 11.436-.019 13.027-5.882 1.799-6.626-8.824.782-13.252 4.412zM23.18 32.84a.78.78 0 0 1 .559.223c-.022.261-.037.523-.05.788a.813.813 0 0 1-.509.173c-.398 0-1.209.325-1.209 0s.811-1.184 1.209-1.184zm17.847 1.372c-4.903 0-8.877-3.624-8.877-8.09s3.974-8.087 8.877-8.087 8.879 3.622 8.879 8.087-3.975 8.09-8.879 8.09z"/></g></svg>