<svg width="300" height="300" xmlns="http://www.w3.org/2000/svg">

 <g>
  <title>Layer 1</title>
  <ellipse stroke-width="0" ry="35.69228" rx="37.84612" id="svg_4" cy="81.38442" cx="141.07668" stroke="#000" fill="#fff"/>
  <g id="svg_1" fill="#facc15" transform="matrix(3.623757 0 0 3.835133 -10.87168 -21.551836)">
   <ellipse id="svg_2" ry="2.149" rx="2.281" cy="28.271" cx="35.932"/>
   <path id="svg_3" d="m25.141,44.046c-1.473,-0.576 -9.345,-2.622 -7.154,0.191s7.154,-0.191 7.154,-0.191zm-9.069,4.46c-0.452,-1.037 -3.398,-6.049 -3.713,-3.52s3.713,3.52 3.713,3.52zm59.311,-2.583c-0.453,-1.033 -3.398,-6.046 -3.713,-3.518s3.713,3.518 3.713,3.518zm-71.916,15.655c2.361,2.176 6.323,-1.228 6.323,-1.228c-1.393,-0.294 -8.684,-0.944 -6.323,1.228zm76.693,-21.195c0.215,-2.137 -3.146,1.433 -3.713,2.198c0,0 3.5,-0.059 3.713,-2.198zm-73.535,11.46c2.063,7.608 14.755,5.718 14.755,5.718c-2.512,-2.433 -16.819,-13.327 -14.755,-5.718zm65.707,4.411c-1.295,-8.027 -3.479,-16.025 -3.479,-21.098c0,-2.462 -0.357,-4.836 -1.02,-7.069a7.44,7.44 0 0 0 1.51,-1.149c2.623,-2.561 0.273,-3.01 -2.969,-2.721c1.303,-0.223 2.621,-0.89 3.809,-2.288c2.652,-3.126 -0.639,-3.04 -4.375,-2.191c1.117,-0.66 2.027,-1.768 2.436,-3.566c1.422,-6.269 -2.428,-3.821 -5.922,-0.726c1.111,-2.331 2.004,-6.046 -1.477,-8.897c-3.9,-3.193 -2.787,2.511 -1.393,6.976c-1.969,-3.753 -5.711,-8.87 -11.113,-7.748c-2.428,0.503 -2.667,1.576 -1.701,2.875c-2.863,-1.016 -5.957,-1.371 -7.893,0.6c-1.558,1.586 -0.541,2.502 1.559,3.001c-7.197,2.058 -12.967,7.755 -15.401,15.094c-0.042,0.017 -9.682,4.23 -7.894,7.981l1.784,-0.14c1.145,1.021 5.731,1.142 7.537,1.149c10.7,8.74 -38.985,53.591 33.245,46.812c6.879,-0.646 10.561,-3.822 12.318,-8.325c0.861,0.656 4.455,3.165 6.656,1.076c2.389,-2.266 -4.6,-1.635 -6.576,-1.277c1.752,-4.678 1.486,-10.746 0.584,-16.899c3.541,0.206 11.436,-0.019 13.027,-5.882c1.799,-6.626 -8.824,0.782 -13.252,4.412zm-49.152,-23.414a0.78,0.78 0 0 1 0.559,0.223c-0.022,0.261 -0.037,0.523 -0.05,0.788a0.813,0.813 0 0 1 -0.509,0.173c-0.398,0 -1.209,0.325 -1.209,0s0.811,-1.184 1.209,-1.184zm17.847,1.372c-4.903,0 -8.877,-3.624 -8.877,-8.09s3.974,-8.087 8.877,-8.087s8.879,3.622 8.879,8.087s-3.975,8.09 -8.879,8.09z"/>
  </g>
 </g>
</svg>