<svg xmlns="http://www.w3.org/2000/svg" viewBox="0 0 122.88 59.13" xmlns:v="https://vecta.io/nano"><path fill="#171717" d="M74.19 17.43c.65.19 1.13.57 1.43 1.15.46.93.29 2.3-.58 4.26h0c-.02.04-.04.08-.06.1L71.91 28c-1.19 1.96-2.4 3.93-4.02 5.44-1.69 1.59-3.78 2.64-6.63 2.63-2.66-.01-4.67-1.03-6.31-2.53-1.58-1.45-2.78-3.29-3.92-5.11l-2.69-4.29c-1-1.49-1.52-2.87-1.56-4a3.09 3.09 0 0 1 .29-1.48c.22-.47.54-.86.99-1.15.22-.15.47-.28.74-.37-.16-2.29-.22-5.13-.11-7.51a10.66 10.66 0 0 1 .33-1.74c.68-2.46 2.42-4.44 4.55-5.8.75-.48 1.58-.87 2.45-1.19C61.19-.97 68.06.05 71.73 4.03c1.49 1.62 2.43 3.77 2.63 6.6l-.17 6.8h0 0zm31.93 26.35c-2.2 6.45-11.4 6.71-13.47 0-.49.44-1.17.81-1.97 1.13 1.79 3.78 2.04 8.82 2.65 12.95h5.86 21.11c1.62-.12 2.44-.95 2.58-2.4 0-2.94-.23-5.2-4.45-7.56-2.67-1.49-9.88-1.92-12.31-4.12h0 0zM89.39 27.22c-.5.15-.88.44-1.1.89-.35.71-.22 1.78.45 3.29h0a.63.63 0 0 0 .04.09l2.37 3.9c.92 1.51 1.85 3.03 3.1 4.2a7.07 7.07 0 0 0 5.12 2.03c2.06 0 3.61-.79 4.88-1.95 1.22-1.12 2.15-2.54 3.03-3.95l2.08-3.31c.78-1.16 1.17-2.21 1.21-3.09.01-.43-.05-.81-.22-1.14a2.06 2.06 0 0 0-.77-.89 2.33 2.33 0 0 0-.57-.28c.13-1.78.18-3.97.09-5.81-.04-.45-.13-.9-.25-1.35-.54-1.9-1.86-3.43-3.52-4.48a9.28 9.28 0 0 0-1.9-.92c-4-1.45-9.29-.66-12.13 2.41-1.15 1.25-1.89 2.9-2.04 5.1l.13 5.26h0 0zm18.56 1.04c.36.03.64.11.83.24.11.08.2.17.25.28.06.13.09.31.09.49-.02.6-.34 1.41-.96 2.35l-.01.02h0l-2.08 3.31c-.83 1.31-1.7 2.66-2.77 3.65-1.02.93-2.26 1.57-3.9 1.57-1.78 0-3.07-.66-4.13-1.64-1.11-1.04-1.98-2.47-2.85-3.89l-2.33-3.85c-.47-1.08-.61-1.72-.46-2.03.1-.19.48-.24 1.12-.19.4.09.83.01 1.28-.22l-1.17-3.51c4.29-.05 7.21-.8 10.69-3.01 1.14-.72 1.48-1.56 2.62-1.48.87.16 1.59.55 2.16 1.17.55.59.96 1.4 1.24 2.44l-.69 4.2c.33.23.7.26 1.07.1h0 0zM90.46 56.05c-.18 1.85-1.25 2.93-3.33 3.08H61.47 35.38c-2.09-.16-3.16-1.24-3.33-3.11l.72-3.03c.2-2.64.94-4.73 2.15-6.33.8-1.06 1.79-1.83 2.88-2.44 3.47-1.93 11.57-2.5 14.72-5.33 2.85 8.4 14.76 8.67 17.43 0 3.15 2.83 11.26 3.4 14.72 5.33 1.09.61 2.09 1.39 2.88 2.44 2.1 2.76 2.3 5.94 2.91 9.39h0zm-73.7-13.48c2.2 6.45 11.4 6.71 13.47 0 .49.44 1.17.81 1.97 1.13-1.79 3.78-2.04 8.82-2.65 12.95h-5.86H2.58C.96 56.53.14 55.7 0 54.25c0-2.94.23-5.21 4.45-7.56 2.68-1.49 9.88-1.93 12.31-4.12h0 0zM33.49 26c.5.15.88.44 1.1.89.35.71.22 1.78-.45 3.29h0c-.01.03-.02.05-.04.09l-2.37 3.9c-.92 1.51-1.85 3.02-3.1 4.2a7.07 7.07 0 0 1-5.12 2.03c-2.06 0-3.61-.79-4.88-1.95-1.22-1.12-2.15-2.54-3.02-3.95l-2.08-3.31c-.78-1.16-1.17-2.21-1.21-3.09-.01-.43.05-.81.22-1.14a2.06 2.06 0 0 1 .77-.89 2.52 2.52 0 0 1 .57-.28c-.13-1.78-.18-3.97-.09-5.81.04-.45.13-.9.25-1.35.54-1.9 1.86-3.43 3.52-4.48a9.28 9.28 0 0 1 1.9-.92c4-1.45 9.29-.66 12.13 2.41 1.15 1.25 1.88 2.9 2.04 5.1L33.49 26h0 0zm-18.56 1.05c-.36.03-.64.11-.83.24-.11.08-.2.18-.25.29-.07.13-.09.31-.09.49.02.6.34 1.41.96 2.35l.01.02h0l2.08 3.31c.83 1.32 1.7 2.66 2.77 3.65 1.02.93 2.26 1.57 3.9 1.57 1.78 0 3.07-.66 4.13-1.64 1.11-1.04 1.98-2.47 2.85-3.89l2.33-3.85c.47-1.07.61-1.72.46-2.03-.1-.19-.48-.24-1.12-.19-.41.09-.83.01-1.28-.22l1.17-3.51c-4.29-.05-7.21-.8-10.69-3.01-1.14-.72-1.48-1.56-2.62-1.48-.87.16-1.59.55-2.16 1.17-.55.59-.96 1.4-1.24 2.44l.69 4.2c-.33.22-.7.24-1.07.09h0 0zm35.11-8.26c-.4.05-.71.15-.94.3-.14.1-.26.23-.32.37-.08.17-.11.39-.11.64.02.79.44 1.83 1.26 3.02l.02.02h0l2.69 4.29c1.07 1.71 2.2 3.45 3.58 4.72 1.32 1.21 2.93 2.03 5.04 2.04 2.3.01 3.97-.85 5.34-2.12 1.44-1.34 2.58-3.19 3.7-5.04l3.03-4.98c.61-1.39.8-2.22.6-2.62-.12-.26-.66-.31-1.55-.23a.67.67 0 0 1-.2 0c-.37 0-.77-.1-1.21-.3l1.36-4.54c-5.55-.07-9.35-1.04-13.83-3.91-1.5-.95-1.94-2.02-3.42-1.92-1.11.22-2.05.71-2.8 1.51-.71.77-1.26 1.82-1.61 3.16l.96 5.5c-.56.29-1.09.31-1.59.09h0 0z" fill-rule="evenodd"/></svg>