<svg xmlns="http://www.w3.org/2000/svg" viewBox="0 0 32 32" fill="none" stroke="#171717" stroke-width="2" stroke-linejoin="round" stroke-miterlimit="10" xmlns:v="https://vecta.io/nano"><path d="M31 6.9h-2.8 0c-4 0-7.8 2.2-9.9 5.8h0c-.5.8-1.7.8-2.1-.1l-2.7-6.1C12.9 5 11.5 4 9.9 4h0C7.8 4 6 5.9 6 8.2v7.2c0 4.4 2.4 8.4 6.1 10.4l.1.1c3.1 1.6 6.8 1.6 9.8 0l.1-.1c2.8-1.5 4.8-4.1 5.7-7.2.7-2.7 1.7-5.3 3.1-7.6l.1-.1h-2.1l2.1-4z"/><path d="M6 7l-5 3 5 3z"/><path d="M4 12.3c0 1.1-.4 2.1-1 3h0C2.2 16.4 3 18 4.3 18h0c1 0 1.7-.7 1.7-1.7" stroke-linecap="round"/><path d="M13 4h-3 0c0-1.7 1.3-3 3-3h3 0c0 1.7-1.3 3-3 3z"/><g stroke-linecap="round"><path d="M19 18h5"/><path d="M12 16v.5c0 3 2.5 5.5 5.5 5.5h0c2.5 0 4.6-1.7 5.3-4M15 31h5"/><path d="M18 31v-4"/></g></svg>